<?xml version="1.0" encoding="UTF-8" standalone="no"?>
<!-- Created with Inkscape (http://www.inkscape.org/) -->

<svg
   version="1.1"
   id="svg2"
   width="2666.6667"
   height="2666.6667"
   viewBox="0 0 2666.6667 2666.6667"
   sodipodi:docname="premier-league.eps"
   xmlns:inkscape="http://www.inkscape.org/namespaces/inkscape"
   xmlns:sodipodi="http://sodipodi.sourceforge.net/DTD/sodipodi-0.dtd"
   xmlns="http://www.w3.org/2000/svg"
   xmlns:svg="http://www.w3.org/2000/svg">
  <defs
     id="defs6" />
  <sodipodi:namedview
     id="namedview4"
     pagecolor="#ffffff"
     bordercolor="#000000"
     borderopacity="0.25"
     inkscape:showpageshadow="2"
     inkscape:pageopacity="0.0"
     inkscape:pagecheckerboard="0"
     inkscape:deskcolor="#d1d1d1" />
  <g
     id="g8"
     inkscape:groupmode="layer"
     inkscape:label="ink_ext_XXXXXX"
     transform="matrix(1.3333333,0,0,-1.3333333,0,2666.6667)">
    <g
       id="g10"
       transform="scale(0.1)">
      <path
         d="M 20000,0 H 0 V 20000 H 20000 V 0"
         style="fill:#291536;fill-opacity:1;fill-rule:evenodd;stroke:none"
         id="path12" />
      <path
         d="m 15249.1,11247.4 c 788.2,-1111.9 999.3,-3884.7 436.3,-4926.3 0,0 -366,380 -619.3,633.4 -112.6,-2026.8 -1210.5,-3631.4 -2069.1,-4110 0,0 -140.7,548.9 -253.3,872.7 -1660.9,-1463.8 -4095.92,-1294.9 -5038.97,-689.7 323.73,1534.2 168.9,3575.1 -253.35,4180.3 -56.3,-197 -1252.69,-1956.4 -1914.23,-2392.8 -492.63,1013.5 -464.49,3321.8 -154.83,4110 0,0 -745.99,-211.1 -1210.47,-351.9 112.6,717.9 647.46,2350.6 1618.65,3195.1 0,0 -492.63,98.5 -788.21,98.5 385.63,687.5 905.18,1292.6 1518.41,1790.6 -57.49,-520.8 119.21,-1088.3 622.76,-1331.7 -790.46,1581 384.15,2423.1 1292.81,1632.7 -93.2,233 -246.66,456.5 -440.27,607 1105.23,497.3 2359.5,705.5 3624.5,536.6 241.2,-69.8 610.8,-609.2 635.9,-649.3 6.9,170.7 -3,400.6 -19.8,537 589.2,-136.8 1175.7,-358.2 1745.7,-673.8 -1978.1,1576 -4414.39,1444 -6437.01,434.7 -165.3,13 -343.21,-29.6 -527.41,-149.5 -119.26,-77.7 -220.54,-191.2 -300.55,-327.3 -1094.96,-719 -2009.78,-1693.3 -2573.92,-2761.9 0,0 180.25,-36 656.15,-108.1 -735.46,-1060 -1148.49,-2506.8 -1190.71,-3520.3 0,0 612.86,150.4 1119.57,319.3 -225.2,-1449.8 76.82,-3444 639.82,-4147.7 365.96,211.1 1477.9,1224.5 1886.09,1928.3 253.35,-844.5 14.07,-2378.7 -168.91,-3195.1 1506.06,-1013.4 4152.18,-914.9 5320.48,98.5 0,0 197,-506.7 267.4,-886.7 858.6,520.8 2477.2,1857.9 2730.6,3842.5 0,0 267.4,-267.4 464.5,-478.5 633.3,1548.3 957.1,4391.5 -619.3,5883.4"
         style="fill:#ffffff;fill-opacity:1;fill-rule:nonzero;stroke:none"
         id="path14" />
      <path
         d="m 7181.11,14941.7 c 1349.83,997.7 3795.19,1102 5281.99,658.6 39.1,619.5 332.6,1688.9 417.3,1812.8 -293.4,-182.6 -958.6,-926 -1017.2,-1056.4 -13.1,502.1 -97.9,1643.3 -97.9,1643.3 -32.6,-19.6 -1336.8,-1486.8 -1336.8,-1486.8 l -932.45,1486.8 -560.81,-1695.4 -1617.19,1160.7 208.67,-1558.5 c -299.97,273.8 -1017.27,717.3 -1206.38,789 319.53,-326 789.04,-1454.2 860.77,-1754.1"
         style="fill:#ffffff;fill-opacity:1;fill-rule:nonzero;stroke:none"
         id="path16" />
      <path
         d="m 12415.7,13626.8 c -365.6,314.4 -1337.9,825.8 -1337.9,825.8 -884.7,44.2 -1769.31,-628.4 -2032.52,-862.4 116.98,-109.6 270.53,-226.6 270.53,-226.6 -504.48,-168.2 -877.34,-592.2 -1008.94,-723.8 204.7,-87.7 570.26,-87.7 570.26,-87.7 380.19,-1915.5 2259.17,-826.2 3333.87,-1338 -402.1,438.7 -1067.4,1045.5 -1067.4,1045.5 -753.1,-51.2 -1211.7,-13.3 -1754.69,424.1 504.47,380.1 979.69,497.1 1081.99,497.1 102.4,0 753.1,-343.6 943.2,-482.5 160.8,146.2 453.3,233.9 614.1,277.8 -212,-226.6 -263.2,-540.6 -212,-650.5 314.4,-292.6 716.5,-731.3 935.8,-965.2 475.2,226.6 1294.1,270.5 1754.7,0 -372.9,453.3 -965.1,899.2 -965.1,899.2 -65.8,197.4 -438.7,665.3 -438.7,665.3 424.1,-204.7 636.1,-387.5 636.1,-387.5 168.2,219.4 431.4,299.8 431.4,299.8 204.7,-248.6 219.3,-445.5 226.6,-511.6 7.3,-66 -182.8,-146.4 -182.8,-146.4 l 533.7,-614.1 c 438.7,1294 -1125.9,2178.7 -2083.6,2712.4 -29.3,-255.9 -248.6,-650.7 -248.6,-650.7"
         style="fill:#ffffff;fill-opacity:1;fill-rule:nonzero;stroke:none"
         id="path18" />
      <path
         d="m 14674.8,10790.1 c -172.3,-129.2 -364.4,-300.9 -615.8,-376.5 v -978.9 c 290.3,-240.8 558.8,-670.6 707.7,-994.1 248.9,847.3 219.2,1711.5 -91.9,2349.5"
         style="fill:#ffffff;fill-opacity:1;fill-rule:nonzero;stroke:none"
         id="path20" />
      <path
         d="m 13461.2,7485.5 c 50.3,-375 89.4,-791.6 102.3,-987 211.8,192.9 398.7,405.3 561.5,630.5 216.3,341.3 274,700.8 275.9,742.2 4.6,100.7 -94.7,349.4 -341.9,737.5 h -683.9 c 0,0 -794.8,-812.1 -1440.5,-838 224.7,-402.3 415.1,-735.7 488.4,-855.5 406,83.1 994.3,482.5 1038.2,570.3"
         style="fill:#ffffff;fill-opacity:1;fill-rule:nonzero;stroke:none"
         id="path22" />
      <path
         d="m 13529.3,9483.6 v 929.4 c -218.5,59.3 -471.7,193.7 -771,441.7 -549.7,-20.2 -1705,-773.9 -1921.8,-1000.4 49,-150.5 364.3,-748.1 703.7,-1369.6 643.6,-4.1 1697.9,579.9 1989.1,998.9"
         style="fill:#ffffff;fill-opacity:1;fill-rule:nonzero;stroke:none"
         id="path24" />
    </g>
  </g>
</svg>
